# xmcd
#
# Track frame offsets:
#	150
#	16287
#	34945
#	53815
#	91840
#	109280
#	130729
#	144050
#	164221
#	191419
#	206295
#	246496
#	263269
#	283097
#	302801
#	322415
#
# Disc length: 4404 seconds
#
# Revision: 1
# Processed by: cddbd v1.5.2PL0 Copyright (c) Steve Scherf et al.
# Submitted via: EZCDAudioConverter 2.1.7.1
#
DISCID=e5113210
DTITLE=Jimi Hendrix Experience - Jimi Hendrix Experience 4/4
DYEAR=2013
DGENRE=
TTITLE0=Message To Love [Alternate Mix]
TTITLE1=Earth Blues
TTITLE2=Astro Man
TTITLE3=Country Blues
TTITLE4=Freedom
TTITLE5=Johnny B. Goode [Live]
TTITLE6=Lover Man
TTITLE7=Blue Suede Shoes [Live]
TTITLE8=Cherokee Mist
TTITLE9=Come Down Hard On Me
TTITLE10=Hey Baby - In From The Storm [Live]
TTITLE11=Ezy Ryder
TTITLE12=Night Bird Flying
TTITLE13=All Along The Watchtower [Live]
TTITLE14=In From The Storm [Live]
TTITLE15=Slow Blues
EXTD=
EXTT0=
EXTT1=
EXTT2=
EXTT3=
EXTT4=
EXTT5=
EXTT6=
EXTT7=
EXTT8=
EXTT9=
EXTT10=
EXTT11=
EXTT12=
EXTT13=
EXTT14=
EXTT15=
PLAYORDER=
